<mxfile host="app.diagrams.net" modified="2023-09-28T17:35:32.564Z" agent="Mozilla/5.0 (Windows NT 10.0; Win64; x64) AppleWebKit/537.36 (KHTML, like Gecko) Chrome/117.0.0.0 Safari/537.36" etag="2_CjRVa3ohtyae7VAbAl" version="22.0.0" type="google">
  <diagram name="Trang-1" id="f5-qiQJTDkaQO1pMizfW">
    <mxGraphModel grid="1" page="1" gridSize="10" guides="1" tooltips="1" connect="1" arrows="1" fold="1" pageScale="1" pageWidth="827" pageHeight="1169" math="0" shadow="0">
      <root>
        <mxCell id="0" />
        <mxCell id="1" parent="0" />
        <mxCell id="KAE_eYUHOnW7GMzy9DOq-1" value="User" style="shape=umlActor;verticalLabelPosition=bottom;verticalAlign=top;html=1;outlineConnect=0;" vertex="1" parent="1">
          <mxGeometry x="70" y="429.89" width="30" height="60" as="geometry" />
        </mxCell>
        <mxCell id="KAE_eYUHOnW7GMzy9DOq-2" value="SPSO&lt;br&gt;" style="shape=umlActor;verticalLabelPosition=bottom;verticalAlign=top;html=1;outlineConnect=0;" vertex="1" parent="1">
          <mxGeometry x="70" y="839.89" width="30" height="60" as="geometry" />
        </mxCell>
        <mxCell id="KAE_eYUHOnW7GMzy9DOq-3" value="Printer" style="shape=umlActor;verticalLabelPosition=bottom;verticalAlign=top;html=1;outlineConnect=0;" vertex="1" parent="1">
          <mxGeometry x="1270" y="350" width="30" height="60" as="geometry" />
        </mxCell>
        <mxCell id="KAE_eYUHOnW7GMzy9DOq-4" value="Payment System Provider" style="shape=umlActor;verticalLabelPosition=bottom;verticalAlign=top;html=1;outlineConnect=0;" vertex="1" parent="1">
          <mxGeometry x="1270" y="490" width="30" height="60" as="geometry" />
        </mxCell>
        <mxCell id="KAE_eYUHOnW7GMzy9DOq-5" value="HCMUT_SSO Authentication Service" style="shape=umlActor;verticalLabelPosition=bottom;verticalAlign=top;html=1;outlineConnect=0;" vertex="1" parent="1">
          <mxGeometry x="1270" y="200" width="30" height="60" as="geometry" />
        </mxCell>
        <mxCell id="KAE_eYUHOnW7GMzy9DOq-6" value="Unregistered User" style="shape=umlActor;verticalLabelPosition=bottom;verticalAlign=top;html=1;outlineConnect=0;" vertex="1" parent="1">
          <mxGeometry x="70" y="114.89" width="30" height="60" as="geometry" />
        </mxCell>
        <mxCell id="KAE_eYUHOnW7GMzy9DOq-7" style="rounded=0;orthogonalLoop=1;jettySize=auto;html=1;endArrow=classic;endFill=1;entryX=0;entryY=0.5;entryDx=0;entryDy=0;" edge="1" parent="1" source="KAE_eYUHOnW7GMzy9DOq-1" target="KAE_eYUHOnW7GMzy9DOq-31">
          <mxGeometry relative="1" as="geometry">
            <mxPoint x="350" y="559.89" as="sourcePoint" />
            <mxPoint x="200" y="420" as="targetPoint" />
          </mxGeometry>
        </mxCell>
        <mxCell id="KAE_eYUHOnW7GMzy9DOq-8" style="rounded=0;orthogonalLoop=1;jettySize=auto;html=1;endArrow=classic;endFill=1;entryX=1;entryY=0.5;entryDx=0;entryDy=0;" edge="1" parent="1" source="KAE_eYUHOnW7GMzy9DOq-3" target="KAE_eYUHOnW7GMzy9DOq-31">
          <mxGeometry relative="1" as="geometry">
            <mxPoint x="720" y="404.89" as="sourcePoint" />
            <mxPoint x="470" y="489.89" as="targetPoint" />
          </mxGeometry>
        </mxCell>
        <mxCell id="KAE_eYUHOnW7GMzy9DOq-9" style="rounded=0;orthogonalLoop=1;jettySize=auto;html=1;endArrow=classic;endFill=1;entryX=0;entryY=0.5;entryDx=0;entryDy=0;" edge="1" parent="1" source="KAE_eYUHOnW7GMzy9DOq-1" target="KAE_eYUHOnW7GMzy9DOq-40">
          <mxGeometry relative="1" as="geometry">
            <mxPoint x="230" y="639.89" as="sourcePoint" />
            <mxPoint x="230" y="579.89" as="targetPoint" />
          </mxGeometry>
        </mxCell>
        <mxCell id="KAE_eYUHOnW7GMzy9DOq-10" style="rounded=0;orthogonalLoop=1;jettySize=auto;html=1;endArrow=classic;endFill=1;entryX=1;entryY=0.5;entryDx=0;entryDy=0;" edge="1" parent="1" source="KAE_eYUHOnW7GMzy9DOq-4" target="KAE_eYUHOnW7GMzy9DOq-55">
          <mxGeometry relative="1" as="geometry">
            <mxPoint x="570" y="599.89" as="sourcePoint" />
            <mxPoint x="570" y="539.89" as="targetPoint" />
          </mxGeometry>
        </mxCell>
        <mxCell id="KAE_eYUHOnW7GMzy9DOq-11" style="rounded=0;orthogonalLoop=1;jettySize=auto;html=1;endArrow=classic;endFill=1;entryX=0;entryY=0.5;entryDx=0;entryDy=0;" edge="1" parent="1" source="KAE_eYUHOnW7GMzy9DOq-6" target="KAE_eYUHOnW7GMzy9DOq-43">
          <mxGeometry relative="1" as="geometry">
            <mxPoint x="180" y="279.89" as="sourcePoint" />
            <mxPoint x="180" y="219.89" as="targetPoint" />
          </mxGeometry>
        </mxCell>
        <mxCell id="KAE_eYUHOnW7GMzy9DOq-12" style="rounded=0;orthogonalLoop=1;jettySize=auto;html=1;endArrow=classic;endFill=1;entryX=0.716;entryY=-0.031;entryDx=0;entryDy=0;entryPerimeter=0;" edge="1" parent="1" source="KAE_eYUHOnW7GMzy9DOq-5" target="KAE_eYUHOnW7GMzy9DOq-47">
          <mxGeometry relative="1" as="geometry">
            <mxPoint x="520" y="119.89" as="sourcePoint" />
            <mxPoint x="520" y="59.89" as="targetPoint" />
          </mxGeometry>
        </mxCell>
        <mxCell id="KAE_eYUHOnW7GMzy9DOq-13" style="rounded=0;orthogonalLoop=1;jettySize=auto;html=1;endArrow=classic;endFill=1;entryX=0;entryY=0;entryDx=0;entryDy=0;" edge="1" parent="1" source="KAE_eYUHOnW7GMzy9DOq-1" target="KAE_eYUHOnW7GMzy9DOq-25">
          <mxGeometry relative="1" as="geometry">
            <mxPoint x="340" y="769.89" as="sourcePoint" />
            <mxPoint x="340" y="709.89" as="targetPoint" />
          </mxGeometry>
        </mxCell>
        <mxCell id="KAE_eYUHOnW7GMzy9DOq-14" style="rounded=0;orthogonalLoop=1;jettySize=auto;html=1;endArrow=classic;endFill=1;entryX=0;entryY=0.5;entryDx=0;entryDy=0;" edge="1" parent="1" source="KAE_eYUHOnW7GMzy9DOq-2" target="KAE_eYUHOnW7GMzy9DOq-28">
          <mxGeometry relative="1" as="geometry">
            <mxPoint x="340" y="769.89" as="sourcePoint" />
            <mxPoint x="340" y="709.89" as="targetPoint" />
          </mxGeometry>
        </mxCell>
        <mxCell id="KAE_eYUHOnW7GMzy9DOq-15" style="rounded=0;orthogonalLoop=1;jettySize=auto;html=1;endArrow=classic;endFill=1;entryX=0;entryY=0.5;entryDx=0;entryDy=0;" edge="1" parent="1" source="KAE_eYUHOnW7GMzy9DOq-2" target="KAE_eYUHOnW7GMzy9DOq-26">
          <mxGeometry relative="1" as="geometry">
            <mxPoint x="340" y="769.89" as="sourcePoint" />
            <mxPoint x="340" y="709.89" as="targetPoint" />
          </mxGeometry>
        </mxCell>
        <mxCell id="KAE_eYUHOnW7GMzy9DOq-16" style="rounded=0;orthogonalLoop=1;jettySize=auto;html=1;endArrow=classic;endFill=1;entryX=0;entryY=0;entryDx=0;entryDy=0;" edge="1" parent="1" source="KAE_eYUHOnW7GMzy9DOq-2" target="KAE_eYUHOnW7GMzy9DOq-39">
          <mxGeometry relative="1" as="geometry">
            <mxPoint x="290" y="759.89" as="sourcePoint" />
            <mxPoint x="290" y="699.89" as="targetPoint" />
          </mxGeometry>
        </mxCell>
        <mxCell id="KAE_eYUHOnW7GMzy9DOq-17" style="rounded=0;orthogonalLoop=1;jettySize=auto;html=1;endArrow=classic;endFill=1;entryX=0;entryY=0;entryDx=0;entryDy=0;" edge="1" parent="1" source="KAE_eYUHOnW7GMzy9DOq-2" target="KAE_eYUHOnW7GMzy9DOq-24">
          <mxGeometry relative="1" as="geometry">
            <mxPoint x="290" y="989.89" as="sourcePoint" />
            <mxPoint x="290" y="929.89" as="targetPoint" />
          </mxGeometry>
        </mxCell>
        <mxCell id="KAE_eYUHOnW7GMzy9DOq-18" style="rounded=0;orthogonalLoop=1;jettySize=auto;html=1;endArrow=classic;endFill=1;entryX=0;entryY=0;entryDx=0;entryDy=0;" edge="1" parent="1" source="KAE_eYUHOnW7GMzy9DOq-2" target="KAE_eYUHOnW7GMzy9DOq-21">
          <mxGeometry relative="1" as="geometry">
            <mxPoint x="290" y="989.89" as="sourcePoint" />
            <mxPoint x="290" y="929.89" as="targetPoint" />
          </mxGeometry>
        </mxCell>
        <mxCell id="KAE_eYUHOnW7GMzy9DOq-19" style="rounded=0;orthogonalLoop=1;jettySize=auto;html=1;endArrow=classic;endFill=1;elbow=vertical;exitX=0;exitY=0.3333333333333333;exitDx=0;exitDy=0;exitPerimeter=0;" edge="1" parent="1" source="KAE_eYUHOnW7GMzy9DOq-1">
          <mxGeometry relative="1" as="geometry">
            <mxPoint x="70" y="750" as="sourcePoint" />
            <mxPoint x="780" y="800" as="targetPoint" />
            <Array as="points">
              <mxPoint x="30" y="450" />
              <mxPoint x="30" y="800" />
            </Array>
          </mxGeometry>
        </mxCell>
        <mxCell id="KAE_eYUHOnW7GMzy9DOq-20" value="System" style="swimlane;whiteSpace=wrap;html=1;" vertex="1" parent="1">
          <mxGeometry x="150" width="1020" height="1540" as="geometry" />
        </mxCell>
        <mxCell id="KAE_eYUHOnW7GMzy9DOq-21" value="Quản lý users" style="ellipse;whiteSpace=wrap;html=1;" vertex="1" parent="KAE_eYUHOnW7GMzy9DOq-20">
          <mxGeometry x="60" y="1130" width="90" height="50" as="geometry" />
        </mxCell>
        <mxCell id="KAE_eYUHOnW7GMzy9DOq-22" value="Thêm phương thức thanh toán" style="ellipse;whiteSpace=wrap;html=1;" vertex="1" parent="KAE_eYUHOnW7GMzy9DOq-20">
          <mxGeometry x="590" y="510" width="100" height="60.11" as="geometry" />
        </mxCell>
        <mxCell id="KAE_eYUHOnW7GMzy9DOq-23" value="Thêm phương thức nhận&lt;br&gt;&amp;nbsp;bản in" style="ellipse;whiteSpace=wrap;html=1;" vertex="1" parent="KAE_eYUHOnW7GMzy9DOq-20">
          <mxGeometry x="210" y="295.17" width="90" height="59.89" as="geometry" />
        </mxCell>
        <mxCell id="KAE_eYUHOnW7GMzy9DOq-24" value="Định cấu hình, giới hạn tệp" style="ellipse;whiteSpace=wrap;html=1;" vertex="1" parent="KAE_eYUHOnW7GMzy9DOq-20">
          <mxGeometry x="60" y="1050" width="100" height="50.11" as="geometry" />
        </mxCell>
        <mxCell id="KAE_eYUHOnW7GMzy9DOq-25" value="Xem nhật ký in ấn" style="ellipse;whiteSpace=wrap;html=1;" vertex="1" parent="KAE_eYUHOnW7GMzy9DOq-20">
          <mxGeometry x="60" y="580" width="80" height="50" as="geometry" />
        </mxCell>
        <mxCell id="KAE_eYUHOnW7GMzy9DOq-26" value="Xem báo cáo in ấn" style="ellipse;whiteSpace=wrap;html=1;" vertex="1" parent="KAE_eYUHOnW7GMzy9DOq-20">
          <mxGeometry x="60" y="810" width="80" height="50" as="geometry" />
        </mxCell>
        <mxCell id="KAE_eYUHOnW7GMzy9DOq-27" value="Theo dõi trạng thái in" style="ellipse;whiteSpace=wrap;html=1;" vertex="1" parent="KAE_eYUHOnW7GMzy9DOq-20">
          <mxGeometry x="55" y="650" width="90" height="50" as="geometry" />
        </mxCell>
        <mxCell id="KAE_eYUHOnW7GMzy9DOq-28" value="Quản lý máy in" style="ellipse;whiteSpace=wrap;html=1;" vertex="1" parent="KAE_eYUHOnW7GMzy9DOq-20">
          <mxGeometry x="60" y="880" width="80" height="50" as="geometry" />
        </mxCell>
        <mxCell id="KAE_eYUHOnW7GMzy9DOq-29" value="Chọn, upload tài liệu" style="ellipse;whiteSpace=wrap;html=1;" vertex="1" parent="KAE_eYUHOnW7GMzy9DOq-20">
          <mxGeometry x="30" y="300.11" width="80" height="50" as="geometry" />
        </mxCell>
        <mxCell id="KAE_eYUHOnW7GMzy9DOq-30" value="Thiết lập thuộc tính" style="ellipse;whiteSpace=wrap;html=1;" vertex="1" parent="KAE_eYUHOnW7GMzy9DOq-20">
          <mxGeometry x="120" y="300.11" width="80" height="50" as="geometry" />
        </mxCell>
        <mxCell id="KAE_eYUHOnW7GMzy9DOq-31" value="In tài liệu" style="ellipse;whiteSpace=wrap;html=1;" vertex="1" parent="KAE_eYUHOnW7GMzy9DOq-20">
          <mxGeometry x="60" y="410" width="80" height="50" as="geometry" />
        </mxCell>
        <mxCell id="KAE_eYUHOnW7GMzy9DOq-32" value="" style="endArrow=classic;html=1;rounded=0;dashed=1;exitX=0.5;exitY=0;exitDx=0;exitDy=0;entryX=0;entryY=1;entryDx=0;entryDy=0;" edge="1" parent="KAE_eYUHOnW7GMzy9DOq-20" source="KAE_eYUHOnW7GMzy9DOq-31" target="KAE_eYUHOnW7GMzy9DOq-30">
          <mxGeometry relative="1" as="geometry">
            <mxPoint x="269.9999999999999" y="519.89" as="sourcePoint" />
            <mxPoint x="90" y="410" as="targetPoint" />
          </mxGeometry>
        </mxCell>
        <mxCell id="KAE_eYUHOnW7GMzy9DOq-33" value="&amp;lt;&amp;lt;Include&amp;gt;&amp;gt;" style="edgeLabel;resizable=0;html=1;align=center;verticalAlign=middle;" connectable="0" vertex="1" parent="KAE_eYUHOnW7GMzy9DOq-32">
          <mxGeometry relative="1" as="geometry" />
        </mxCell>
        <mxCell id="KAE_eYUHOnW7GMzy9DOq-34" value="" style="endArrow=classic;html=1;rounded=0;dashed=1;entryX=0.5;entryY=1;entryDx=0;entryDy=0;exitX=0.25;exitY=0;exitDx=0;exitDy=0;exitPerimeter=0;" edge="1" parent="KAE_eYUHOnW7GMzy9DOq-20" source="KAE_eYUHOnW7GMzy9DOq-31" target="KAE_eYUHOnW7GMzy9DOq-29">
          <mxGeometry relative="1" as="geometry">
            <mxPoint x="40" y="380" as="sourcePoint" />
            <mxPoint x="100" y="420" as="targetPoint" />
          </mxGeometry>
        </mxCell>
        <mxCell id="KAE_eYUHOnW7GMzy9DOq-35" value="&amp;lt;&amp;lt;Include&amp;gt;&amp;gt;" style="edgeLabel;resizable=0;html=1;align=center;verticalAlign=middle;" connectable="0" vertex="1" parent="KAE_eYUHOnW7GMzy9DOq-34">
          <mxGeometry relative="1" as="geometry" />
        </mxCell>
        <mxCell id="KAE_eYUHOnW7GMzy9DOq-36" value="" style="endArrow=classic;html=1;rounded=0;dashed=1;exitX=0.958;exitY=0.267;exitDx=0;exitDy=0;entryX=0.019;entryY=0.722;entryDx=0;entryDy=0;entryPerimeter=0;exitPerimeter=0;" edge="1" parent="KAE_eYUHOnW7GMzy9DOq-20" source="KAE_eYUHOnW7GMzy9DOq-31" target="KAE_eYUHOnW7GMzy9DOq-23">
          <mxGeometry relative="1" as="geometry">
            <mxPoint x="110" y="420" as="sourcePoint" />
            <mxPoint x="182" y="373" as="targetPoint" />
          </mxGeometry>
        </mxCell>
        <mxCell id="KAE_eYUHOnW7GMzy9DOq-37" value="&amp;lt;&amp;lt;Include&amp;gt;&amp;gt;" style="edgeLabel;resizable=0;html=1;align=center;verticalAlign=middle;" connectable="0" vertex="1" parent="KAE_eYUHOnW7GMzy9DOq-36">
          <mxGeometry relative="1" as="geometry" />
        </mxCell>
        <mxCell id="KAE_eYUHOnW7GMzy9DOq-38" value="Quản lý tất cả người dùng trong hệ thống" style="ellipse;whiteSpace=wrap;html=1;" vertex="1" parent="KAE_eYUHOnW7GMzy9DOq-20">
          <mxGeometry x="70" y="1310" width="100" height="50" as="geometry" />
        </mxCell>
        <mxCell id="KAE_eYUHOnW7GMzy9DOq-39" value="Đặt hạn ngạch trang" style="ellipse;whiteSpace=wrap;html=1;" vertex="1" parent="KAE_eYUHOnW7GMzy9DOq-20">
          <mxGeometry x="60" y="960" width="80" height="50" as="geometry" />
        </mxCell>
        <mxCell id="KAE_eYUHOnW7GMzy9DOq-40" value="Mua thêm trang" style="ellipse;whiteSpace=wrap;html=1;" vertex="1" parent="KAE_eYUHOnW7GMzy9DOq-20">
          <mxGeometry x="60" y="480" width="80" height="50" as="geometry" />
        </mxCell>
        <mxCell id="KAE_eYUHOnW7GMzy9DOq-41" value="Quản lý profile cá nhân" style="ellipse;whiteSpace=wrap;html=1;" vertex="1" parent="KAE_eYUHOnW7GMzy9DOq-20">
          <mxGeometry x="60" y="720" width="90" height="50" as="geometry" />
        </mxCell>
        <mxCell id="KAE_eYUHOnW7GMzy9DOq-42" value="Quản lý hàng đợi in" style="ellipse;whiteSpace=wrap;html=1;" vertex="1" parent="KAE_eYUHOnW7GMzy9DOq-20">
          <mxGeometry x="60" y="1210" width="90" height="50" as="geometry" />
        </mxCell>
        <mxCell id="KAE_eYUHOnW7GMzy9DOq-43" value="Đăng ký" style="ellipse;whiteSpace=wrap;html=1;" vertex="1" parent="KAE_eYUHOnW7GMzy9DOq-20">
          <mxGeometry x="65" y="119.89" width="80" height="50" as="geometry" />
        </mxCell>
        <mxCell id="KAE_eYUHOnW7GMzy9DOq-44" value="Đổi mật khẩu" style="ellipse;whiteSpace=wrap;html=1;" vertex="1" parent="KAE_eYUHOnW7GMzy9DOq-20">
          <mxGeometry x="870" y="690" width="80" height="50" as="geometry" />
        </mxCell>
        <mxCell id="KAE_eYUHOnW7GMzy9DOq-45" value="Đăng xuất" style="ellipse;whiteSpace=wrap;html=1;" vertex="1" parent="KAE_eYUHOnW7GMzy9DOq-20">
          <mxGeometry x="690" y="830" width="80" height="50" as="geometry" />
        </mxCell>
        <mxCell id="KAE_eYUHOnW7GMzy9DOq-47" value="Đăng nhập" style="ellipse;whiteSpace=wrap;html=1;" vertex="1" parent="KAE_eYUHOnW7GMzy9DOq-20">
          <mxGeometry x="690" y="730" width="80" height="50" as="geometry" />
        </mxCell>
        <mxCell id="KAE_eYUHOnW7GMzy9DOq-48" value="" style="endArrow=classic;html=1;rounded=0;dashed=1;entryX=1;entryY=0;entryDx=0;entryDy=0;exitX=0;exitY=0.5;exitDx=0;exitDy=0;" edge="1" parent="KAE_eYUHOnW7GMzy9DOq-20" source="KAE_eYUHOnW7GMzy9DOq-44" target="KAE_eYUHOnW7GMzy9DOq-47">
          <mxGeometry relative="1" as="geometry">
            <mxPoint x="289.9999999999999" y="940" as="sourcePoint" />
            <mxPoint x="389.9999999999999" y="940" as="targetPoint" />
          </mxGeometry>
        </mxCell>
        <mxCell id="KAE_eYUHOnW7GMzy9DOq-49" value="&amp;lt;&amp;lt;Extend&amp;gt;&amp;gt;" style="edgeLabel;resizable=0;html=1;align=center;verticalAlign=middle;" connectable="0" vertex="1" parent="KAE_eYUHOnW7GMzy9DOq-48">
          <mxGeometry relative="1" as="geometry" />
        </mxCell>
        <mxCell id="KAE_eYUHOnW7GMzy9DOq-51" value="" style="endArrow=classic;html=1;rounded=0;dashed=1;exitX=1;exitY=0.4;exitDx=0;exitDy=0;entryX=0.5;entryY=0;entryDx=0;entryDy=0;exitPerimeter=0;" edge="1" parent="KAE_eYUHOnW7GMzy9DOq-20" source="KAE_eYUHOnW7GMzy9DOq-31" target="KAE_eYUHOnW7GMzy9DOq-47">
          <mxGeometry relative="1" as="geometry">
            <mxPoint x="147" y="433" as="sourcePoint" />
            <mxPoint x="222" y="348" as="targetPoint" />
          </mxGeometry>
        </mxCell>
        <mxCell id="KAE_eYUHOnW7GMzy9DOq-52" value="&amp;lt;&amp;lt;Include&amp;gt;&amp;gt;" style="edgeLabel;resizable=0;html=1;align=center;verticalAlign=middle;" connectable="0" vertex="1" parent="KAE_eYUHOnW7GMzy9DOq-51">
          <mxGeometry relative="1" as="geometry" />
        </mxCell>
        <mxCell id="KAE_eYUHOnW7GMzy9DOq-53" value="" style="endArrow=classic;html=1;rounded=0;dashed=1;exitX=1;exitY=0;exitDx=0;exitDy=0;entryX=0;entryY=0;entryDx=0;entryDy=0;" edge="1" parent="KAE_eYUHOnW7GMzy9DOq-20" source="KAE_eYUHOnW7GMzy9DOq-40" target="KAE_eYUHOnW7GMzy9DOq-47">
          <mxGeometry relative="1" as="geometry">
            <mxPoint x="150" y="440" as="sourcePoint" />
            <mxPoint x="772" y="263" as="targetPoint" />
          </mxGeometry>
        </mxCell>
        <mxCell id="KAE_eYUHOnW7GMzy9DOq-54" value="&amp;lt;&amp;lt;Include&amp;gt;&amp;gt;" style="edgeLabel;resizable=0;html=1;align=center;verticalAlign=middle;" connectable="0" vertex="1" parent="KAE_eYUHOnW7GMzy9DOq-53">
          <mxGeometry relative="1" as="geometry" />
        </mxCell>
        <mxCell id="KAE_eYUHOnW7GMzy9DOq-55" value="Thanh toán" style="ellipse;whiteSpace=wrap;html=1;" vertex="1" parent="KAE_eYUHOnW7GMzy9DOq-20">
          <mxGeometry x="460" y="450" width="80" height="50" as="geometry" />
        </mxCell>
        <mxCell id="KAE_eYUHOnW7GMzy9DOq-56" value="" style="endArrow=classic;html=1;rounded=0;dashed=1;entryX=0;entryY=0.5;entryDx=0;entryDy=0;exitX=1;exitY=0.5;exitDx=0;exitDy=0;" edge="1" parent="KAE_eYUHOnW7GMzy9DOq-20" source="KAE_eYUHOnW7GMzy9DOq-40" target="KAE_eYUHOnW7GMzy9DOq-55">
          <mxGeometry relative="1" as="geometry">
            <mxPoint x="210" y="439.89" as="sourcePoint" />
            <mxPoint x="290" y="439.89" as="targetPoint" />
          </mxGeometry>
        </mxCell>
        <mxCell id="KAE_eYUHOnW7GMzy9DOq-57" value="&amp;lt;&amp;lt;Include&amp;gt;&amp;gt;" style="edgeLabel;resizable=0;html=1;align=center;verticalAlign=middle;" connectable="0" vertex="1" parent="KAE_eYUHOnW7GMzy9DOq-56">
          <mxGeometry relative="1" as="geometry" />
        </mxCell>
        <mxCell id="KAE_eYUHOnW7GMzy9DOq-58" value="" style="endArrow=classic;html=1;rounded=0;dashed=1;entryX=0.5;entryY=1;entryDx=0;entryDy=0;exitX=0.067;exitY=0.277;exitDx=0;exitDy=0;exitPerimeter=0;" edge="1" parent="KAE_eYUHOnW7GMzy9DOq-20" source="KAE_eYUHOnW7GMzy9DOq-22" target="KAE_eYUHOnW7GMzy9DOq-55">
          <mxGeometry relative="1" as="geometry">
            <mxPoint x="109.99999999999989" y="619.89" as="sourcePoint" />
            <mxPoint x="209.9999999999999" y="619.89" as="targetPoint" />
          </mxGeometry>
        </mxCell>
        <mxCell id="KAE_eYUHOnW7GMzy9DOq-59" value="&amp;lt;&amp;lt;Extend&amp;gt;&amp;gt;" style="edgeLabel;resizable=0;html=1;align=center;verticalAlign=middle;" connectable="0" vertex="1" parent="KAE_eYUHOnW7GMzy9DOq-58">
          <mxGeometry relative="1" as="geometry" />
        </mxCell>
        <mxCell id="KAE_eYUHOnW7GMzy9DOq-60" value="" style="endArrow=classic;html=1;rounded=0;dashed=1;exitX=1;exitY=0;exitDx=0;exitDy=0;entryX=0.025;entryY=0.267;entryDx=0;entryDy=0;entryPerimeter=0;" edge="1" parent="KAE_eYUHOnW7GMzy9DOq-20" source="KAE_eYUHOnW7GMzy9DOq-25" target="KAE_eYUHOnW7GMzy9DOq-47">
          <mxGeometry relative="1" as="geometry">
            <mxPoint x="160" y="450" as="sourcePoint" />
            <mxPoint x="782" y="273" as="targetPoint" />
          </mxGeometry>
        </mxCell>
        <mxCell id="KAE_eYUHOnW7GMzy9DOq-61" value="&amp;lt;&amp;lt;Include&amp;gt;&amp;gt;" style="edgeLabel;resizable=0;html=1;align=center;verticalAlign=middle;" connectable="0" vertex="1" parent="KAE_eYUHOnW7GMzy9DOq-60">
          <mxGeometry relative="1" as="geometry" />
        </mxCell>
        <mxCell id="KAE_eYUHOnW7GMzy9DOq-62" value="" style="endArrow=classic;html=1;rounded=0;dashed=1;exitX=1;exitY=0.5;exitDx=0;exitDy=0;entryX=0.05;entryY=0.32;entryDx=0;entryDy=0;entryPerimeter=0;" edge="1" parent="KAE_eYUHOnW7GMzy9DOq-20" source="KAE_eYUHOnW7GMzy9DOq-27" target="KAE_eYUHOnW7GMzy9DOq-47">
          <mxGeometry relative="1" as="geometry">
            <mxPoint x="170" y="460" as="sourcePoint" />
            <mxPoint x="792" y="283" as="targetPoint" />
          </mxGeometry>
        </mxCell>
        <mxCell id="KAE_eYUHOnW7GMzy9DOq-63" value="&amp;lt;&amp;lt;Include&amp;gt;&amp;gt;" style="edgeLabel;resizable=0;html=1;align=center;verticalAlign=middle;" connectable="0" vertex="1" parent="KAE_eYUHOnW7GMzy9DOq-62">
          <mxGeometry relative="1" as="geometry" />
        </mxCell>
        <mxCell id="KAE_eYUHOnW7GMzy9DOq-64" value="" style="endArrow=classic;html=1;rounded=0;dashed=1;exitX=1;exitY=0.5;exitDx=0;exitDy=0;entryX=0;entryY=1;entryDx=0;entryDy=0;" edge="1" parent="KAE_eYUHOnW7GMzy9DOq-20" source="KAE_eYUHOnW7GMzy9DOq-26" target="KAE_eYUHOnW7GMzy9DOq-47">
          <mxGeometry relative="1" as="geometry">
            <mxPoint x="160" y="755" as="sourcePoint" />
            <mxPoint x="700" y="755" as="targetPoint" />
          </mxGeometry>
        </mxCell>
        <mxCell id="KAE_eYUHOnW7GMzy9DOq-65" value="&amp;lt;&amp;lt;Include&amp;gt;&amp;gt;" style="edgeLabel;resizable=0;html=1;align=center;verticalAlign=middle;" connectable="0" vertex="1" parent="KAE_eYUHOnW7GMzy9DOq-64">
          <mxGeometry relative="1" as="geometry">
            <mxPoint x="-166" y="16" as="offset" />
          </mxGeometry>
        </mxCell>
        <mxCell id="KAE_eYUHOnW7GMzy9DOq-66" value="" style="endArrow=classic;html=1;rounded=0;dashed=1;exitX=1;exitY=0.5;exitDx=0;exitDy=0;entryX=0.275;entryY=1;entryDx=0;entryDy=0;entryPerimeter=0;" edge="1" parent="KAE_eYUHOnW7GMzy9DOq-20" source="KAE_eYUHOnW7GMzy9DOq-28" target="KAE_eYUHOnW7GMzy9DOq-47">
          <mxGeometry relative="1" as="geometry">
            <mxPoint x="150" y="845" as="sourcePoint" />
            <mxPoint x="712" y="783" as="targetPoint" />
          </mxGeometry>
        </mxCell>
        <mxCell id="KAE_eYUHOnW7GMzy9DOq-67" value="&amp;lt;&amp;lt;Include&amp;gt;&amp;gt;" style="edgeLabel;resizable=0;html=1;align=center;verticalAlign=middle;" connectable="0" vertex="1" parent="KAE_eYUHOnW7GMzy9DOq-66">
          <mxGeometry relative="1" as="geometry">
            <mxPoint x="-146" y="27" as="offset" />
          </mxGeometry>
        </mxCell>
        <mxCell id="KAE_eYUHOnW7GMzy9DOq-68" value="" style="endArrow=classic;html=1;rounded=0;dashed=1;exitX=1;exitY=0.5;exitDx=0;exitDy=0;entryX=0.327;entryY=1.067;entryDx=0;entryDy=0;entryPerimeter=0;" edge="1" parent="KAE_eYUHOnW7GMzy9DOq-20" source="KAE_eYUHOnW7GMzy9DOq-24" target="KAE_eYUHOnW7GMzy9DOq-47">
          <mxGeometry relative="1" as="geometry">
            <mxPoint x="170" y="865" as="sourcePoint" />
            <mxPoint x="732" y="803" as="targetPoint" />
          </mxGeometry>
        </mxCell>
        <mxCell id="KAE_eYUHOnW7GMzy9DOq-69" value="&amp;lt;&amp;lt;Include&amp;gt;&amp;gt;" style="edgeLabel;resizable=0;html=1;align=center;verticalAlign=middle;" connectable="0" vertex="1" parent="KAE_eYUHOnW7GMzy9DOq-68">
          <mxGeometry relative="1" as="geometry">
            <mxPoint x="-98" y="51" as="offset" />
          </mxGeometry>
        </mxCell>
        <mxCell id="KAE_eYUHOnW7GMzy9DOq-70" value="" style="endArrow=classic;html=1;rounded=0;dashed=1;entryX=0.348;entryY=1.017;entryDx=0;entryDy=0;exitX=1;exitY=0.5;exitDx=0;exitDy=0;entryPerimeter=0;" edge="1" parent="KAE_eYUHOnW7GMzy9DOq-20" source="KAE_eYUHOnW7GMzy9DOq-21" target="KAE_eYUHOnW7GMzy9DOq-47">
          <mxGeometry relative="1" as="geometry">
            <mxPoint x="380" y="1220" as="sourcePoint" />
            <mxPoint x="742" y="813" as="targetPoint" />
          </mxGeometry>
        </mxCell>
        <mxCell id="KAE_eYUHOnW7GMzy9DOq-71" value="&amp;lt;&amp;lt;Include&amp;gt;&amp;gt;" style="edgeLabel;resizable=0;html=1;align=center;verticalAlign=middle;" connectable="0" vertex="1" parent="KAE_eYUHOnW7GMzy9DOq-70">
          <mxGeometry relative="1" as="geometry">
            <mxPoint x="-31" y="34" as="offset" />
          </mxGeometry>
        </mxCell>
        <mxCell id="KAE_eYUHOnW7GMzy9DOq-72" value="" style="endArrow=classic;html=1;rounded=0;dashed=1;exitX=1;exitY=0;exitDx=0;exitDy=0;entryX=0.5;entryY=1;entryDx=0;entryDy=0;" edge="1" parent="KAE_eYUHOnW7GMzy9DOq-20" source="KAE_eYUHOnW7GMzy9DOq-38" target="KAE_eYUHOnW7GMzy9DOq-47">
          <mxGeometry relative="1" as="geometry">
            <mxPoint x="160" y="1245" as="sourcePoint" />
            <mxPoint x="730" y="790" as="targetPoint" />
          </mxGeometry>
        </mxCell>
        <mxCell id="KAE_eYUHOnW7GMzy9DOq-73" value="&amp;lt;&amp;lt;Include&amp;gt;&amp;gt;" style="edgeLabel;resizable=0;html=1;align=center;verticalAlign=middle;" connectable="0" vertex="1" parent="KAE_eYUHOnW7GMzy9DOq-72">
          <mxGeometry relative="1" as="geometry">
            <mxPoint x="-31" y="34" as="offset" />
          </mxGeometry>
        </mxCell>
        <mxCell id="zKnPEbWQGU-p6_W454c6-2" value="Tạo báo cáo in ấn định kỳ" style="ellipse;whiteSpace=wrap;html=1;" vertex="1" parent="KAE_eYUHOnW7GMzy9DOq-20">
          <mxGeometry x="840" y="1065" width="80" height="50" as="geometry" />
        </mxCell>
        <mxCell id="zKnPEbWQGU-p6_W454c6-5" value="Quản lý báo cáo in ấn" style="ellipse;whiteSpace=wrap;html=1;" vertex="1" parent="KAE_eYUHOnW7GMzy9DOq-20">
          <mxGeometry x="70" y="1390" width="80" height="50" as="geometry" />
        </mxCell>
        <mxCell id="zKnPEbWQGU-p6_W454c6-10" value="Ghi nhật ký hoạt động" style="ellipse;whiteSpace=wrap;html=1;" vertex="1" parent="KAE_eYUHOnW7GMzy9DOq-20">
          <mxGeometry x="840" y="1235" width="80" height="50" as="geometry" />
        </mxCell>
        <mxCell id="zKnPEbWQGU-p6_W454c6-12" value="" style="endArrow=classic;html=1;rounded=0;dashed=1;exitX=1;exitY=0.5;exitDx=0;exitDy=0;entryX=0.5;entryY=1;entryDx=0;entryDy=0;" edge="1" parent="KAE_eYUHOnW7GMzy9DOq-20" source="zKnPEbWQGU-p6_W454c6-5" target="KAE_eYUHOnW7GMzy9DOq-47">
          <mxGeometry relative="1" as="geometry">
            <mxPoint x="165" y="1327" as="sourcePoint" />
            <mxPoint x="740" y="790" as="targetPoint" />
          </mxGeometry>
        </mxCell>
        <mxCell id="zKnPEbWQGU-p6_W454c6-13" value="&amp;lt;&amp;lt;Include&amp;gt;&amp;gt;" style="edgeLabel;resizable=0;html=1;align=center;verticalAlign=middle;" connectable="0" vertex="1" parent="zKnPEbWQGU-p6_W454c6-12">
          <mxGeometry relative="1" as="geometry">
            <mxPoint x="-31" y="34" as="offset" />
          </mxGeometry>
        </mxCell>
        <mxCell id="OS5Jr0DJWC_1cJ-TYuyt-1" value="" style="endArrow=classic;html=1;rounded=0;dashed=1;exitX=1;exitY=0.5;exitDx=0;exitDy=0;entryX=1;entryY=0.5;entryDx=0;entryDy=0;edgeStyle=orthogonalEdgeStyle;" edge="1" parent="KAE_eYUHOnW7GMzy9DOq-20" source="KAE_eYUHOnW7GMzy9DOq-45" target="KAE_eYUHOnW7GMzy9DOq-47">
          <mxGeometry relative="1" as="geometry">
            <mxPoint x="150" y="440" as="sourcePoint" />
            <mxPoint x="740" y="740" as="targetPoint" />
            <Array as="points">
              <mxPoint x="830" y="855" />
              <mxPoint x="830" y="755" />
            </Array>
          </mxGeometry>
        </mxCell>
        <mxCell id="OS5Jr0DJWC_1cJ-TYuyt-2" value="&amp;lt;&amp;lt;Include&amp;gt;&amp;gt;" style="edgeLabel;resizable=0;html=1;align=center;verticalAlign=middle;" connectable="0" vertex="1" parent="OS5Jr0DJWC_1cJ-TYuyt-1">
          <mxGeometry relative="1" as="geometry" />
        </mxCell>
        <mxCell id="OS5Jr0DJWC_1cJ-TYuyt-3" value="" style="endArrow=classic;startArrow=classic;html=1;rounded=0;entryX=0;entryY=0.5;entryDx=0;entryDy=0;exitX=0;exitY=0.5;exitDx=0;exitDy=0;edgeStyle=orthogonalEdgeStyle;" edge="1" parent="KAE_eYUHOnW7GMzy9DOq-20" source="KAE_eYUHOnW7GMzy9DOq-45" target="KAE_eYUHOnW7GMzy9DOq-47">
          <mxGeometry width="50" height="50" relative="1" as="geometry">
            <mxPoint x="510" y="770" as="sourcePoint" />
            <mxPoint x="560" y="770" as="targetPoint" />
            <Array as="points">
              <mxPoint x="630" y="855" />
              <mxPoint x="630" y="755" />
            </Array>
          </mxGeometry>
        </mxCell>
        <mxCell id="KAE_eYUHOnW7GMzy9DOq-74" style="rounded=0;orthogonalLoop=1;jettySize=auto;html=1;endArrow=classic;endFill=1;entryX=0;entryY=0;entryDx=0;entryDy=0;" edge="1" parent="1" source="KAE_eYUHOnW7GMzy9DOq-1" target="KAE_eYUHOnW7GMzy9DOq-27">
          <mxGeometry relative="1" as="geometry">
            <mxPoint x="110" y="753" as="sourcePoint" />
            <mxPoint x="232" y="617" as="targetPoint" />
          </mxGeometry>
        </mxCell>
        <mxCell id="KAE_eYUHOnW7GMzy9DOq-76" value="Admin" style="shape=umlActor;verticalLabelPosition=bottom;verticalAlign=top;html=1;outlineConnect=0;" vertex="1" parent="1">
          <mxGeometry x="70" y="1450" width="30" height="60" as="geometry" />
        </mxCell>
        <mxCell id="KAE_eYUHOnW7GMzy9DOq-78" style="rounded=0;orthogonalLoop=1;jettySize=auto;html=1;endArrow=classic;endFill=1;entryX=0;entryY=0.5;entryDx=0;entryDy=0;" edge="1" parent="1" source="KAE_eYUHOnW7GMzy9DOq-76" target="KAE_eYUHOnW7GMzy9DOq-38">
          <mxGeometry relative="1" as="geometry">
            <mxPoint x="110" y="790" as="sourcePoint" />
            <mxPoint x="235" y="957" as="targetPoint" />
          </mxGeometry>
        </mxCell>
        <mxCell id="KAE_eYUHOnW7GMzy9DOq-79" style="rounded=0;orthogonalLoop=1;jettySize=auto;html=1;endArrow=classic;endFill=1;entryX=0;entryY=0.5;entryDx=0;entryDy=0;" edge="1" parent="1" source="KAE_eYUHOnW7GMzy9DOq-1" target="KAE_eYUHOnW7GMzy9DOq-41">
          <mxGeometry relative="1" as="geometry">
            <mxPoint x="110" y="485" as="sourcePoint" />
            <mxPoint x="233" y="607" as="targetPoint" />
          </mxGeometry>
        </mxCell>
        <mxCell id="KAE_eYUHOnW7GMzy9DOq-80" style="rounded=0;orthogonalLoop=1;jettySize=auto;html=1;endArrow=classic;endFill=1;entryX=0;entryY=0.5;entryDx=0;entryDy=0;" edge="1" parent="1" source="KAE_eYUHOnW7GMzy9DOq-2" target="KAE_eYUHOnW7GMzy9DOq-42">
          <mxGeometry relative="1" as="geometry">
            <mxPoint x="110" y="796" as="sourcePoint" />
            <mxPoint x="235" y="1017" as="targetPoint" />
          </mxGeometry>
        </mxCell>
        <mxCell id="KAE_eYUHOnW7GMzy9DOq-81" value="" style="endArrow=classic;html=1;rounded=0;dashed=1;exitX=1;exitY=0.5;exitDx=0;exitDy=0;" edge="1" parent="1" source="KAE_eYUHOnW7GMzy9DOq-41">
          <mxGeometry relative="1" as="geometry">
            <mxPoint x="305" y="685" as="sourcePoint" />
            <mxPoint x="840" y="745" as="targetPoint" />
          </mxGeometry>
        </mxCell>
        <mxCell id="KAE_eYUHOnW7GMzy9DOq-82" value="&amp;lt;&amp;lt;Include&amp;gt;&amp;gt;" style="edgeLabel;resizable=0;html=1;align=center;verticalAlign=middle;" connectable="0" vertex="1" parent="KAE_eYUHOnW7GMzy9DOq-81">
          <mxGeometry relative="1" as="geometry" />
        </mxCell>
        <mxCell id="KAE_eYUHOnW7GMzy9DOq-83" value="" style="endArrow=classic;html=1;rounded=0;dashed=1;exitX=1;exitY=0.5;exitDx=0;exitDy=0;" edge="1" parent="1" source="KAE_eYUHOnW7GMzy9DOq-39">
          <mxGeometry relative="1" as="geometry">
            <mxPoint x="310" y="855" as="sourcePoint" />
            <mxPoint x="860" y="780" as="targetPoint" />
          </mxGeometry>
        </mxCell>
        <mxCell id="KAE_eYUHOnW7GMzy9DOq-84" value="&amp;lt;&amp;lt;Include&amp;gt;&amp;gt;" style="edgeLabel;resizable=0;html=1;align=center;verticalAlign=middle;" connectable="0" vertex="1" parent="KAE_eYUHOnW7GMzy9DOq-83">
          <mxGeometry relative="1" as="geometry">
            <mxPoint x="-135" y="47" as="offset" />
          </mxGeometry>
        </mxCell>
        <mxCell id="KAE_eYUHOnW7GMzy9DOq-85" value="" style="endArrow=classic;html=1;rounded=0;dashed=1;exitX=1;exitY=0.5;exitDx=0;exitDy=0;" edge="1" parent="1" source="KAE_eYUHOnW7GMzy9DOq-42">
          <mxGeometry relative="1" as="geometry">
            <mxPoint x="310" y="1165" as="sourcePoint" />
            <mxPoint x="870" y="780" as="targetPoint" />
          </mxGeometry>
        </mxCell>
        <mxCell id="KAE_eYUHOnW7GMzy9DOq-86" value="&amp;lt;&amp;lt;Include&amp;gt;&amp;gt;" style="edgeLabel;resizable=0;html=1;align=center;verticalAlign=middle;" connectable="0" vertex="1" parent="KAE_eYUHOnW7GMzy9DOq-85">
          <mxGeometry relative="1" as="geometry">
            <mxPoint x="-31" y="34" as="offset" />
          </mxGeometry>
        </mxCell>
        <mxCell id="KAE_eYUHOnW7GMzy9DOq-87" style="rounded=0;orthogonalLoop=1;jettySize=auto;html=1;endArrow=classic;endFill=1;entryX=1;entryY=0.5;entryDx=0;entryDy=0;exitX=0;exitY=0.3333333333333333;exitDx=0;exitDy=0;exitPerimeter=0;" edge="1" parent="1" source="KAE_eYUHOnW7GMzy9DOq-5" target="KAE_eYUHOnW7GMzy9DOq-43">
          <mxGeometry relative="1" as="geometry">
            <mxPoint x="770" y="111.11000000000001" as="sourcePoint" />
            <mxPoint x="530" y="539.11" as="targetPoint" />
          </mxGeometry>
        </mxCell>
        <mxCell id="zKnPEbWQGU-p6_W454c6-1" value="Report System" style="shape=umlActor;verticalLabelPosition=bottom;verticalAlign=top;html=1;outlineConnect=0;" vertex="1" parent="1">
          <mxGeometry x="1270" y="1060" width="30" height="60" as="geometry" />
        </mxCell>
        <mxCell id="zKnPEbWQGU-p6_W454c6-3" style="rounded=0;orthogonalLoop=1;jettySize=auto;html=1;endArrow=classic;endFill=1;entryX=1;entryY=0.5;entryDx=0;entryDy=0;exitX=0.5;exitY=0.5;exitDx=0;exitDy=0;exitPerimeter=0;" edge="1" parent="1" source="zKnPEbWQGU-p6_W454c6-1" target="zKnPEbWQGU-p6_W454c6-2">
          <mxGeometry relative="1" as="geometry">
            <mxPoint x="960" y="930" as="sourcePoint" />
            <mxPoint x="1075" y="1265" as="targetPoint" />
          </mxGeometry>
        </mxCell>
        <mxCell id="zKnPEbWQGU-p6_W454c6-7" style="rounded=0;orthogonalLoop=1;jettySize=auto;html=1;endArrow=classic;endFill=1;entryX=0;entryY=0.5;entryDx=0;entryDy=0;exitX=1;exitY=0.3333333333333333;exitDx=0;exitDy=0;exitPerimeter=0;" edge="1" parent="1" source="KAE_eYUHOnW7GMzy9DOq-76" target="zKnPEbWQGU-p6_W454c6-5">
          <mxGeometry relative="1" as="geometry">
            <mxPoint x="450" y="1280" as="sourcePoint" />
            <mxPoint x="1080" y="1165" as="targetPoint" />
          </mxGeometry>
        </mxCell>
        <mxCell id="zKnPEbWQGU-p6_W454c6-8" value="Logging System" style="shape=umlActor;verticalLabelPosition=bottom;verticalAlign=top;html=1;outlineConnect=0;" vertex="1" parent="1">
          <mxGeometry x="1270" y="1230" width="30" height="60" as="geometry" />
        </mxCell>
        <mxCell id="zKnPEbWQGU-p6_W454c6-11" style="rounded=0;orthogonalLoop=1;jettySize=auto;html=1;endArrow=classic;endFill=1;entryX=1;entryY=0.5;entryDx=0;entryDy=0;exitX=0.5;exitY=0.5;exitDx=0;exitDy=0;exitPerimeter=0;" edge="1" parent="1" source="zKnPEbWQGU-p6_W454c6-8" target="zKnPEbWQGU-p6_W454c6-10">
          <mxGeometry relative="1" as="geometry">
            <mxPoint x="1190" y="1280" as="sourcePoint" />
            <mxPoint x="975" y="1470" as="targetPoint" />
          </mxGeometry>
        </mxCell>
      </root>
    </mxGraphModel>
  </diagram>
</mxfile>
